<svg xmlns="http://www.w3.org/2000/svg" viewBox="0 0 192 192">
  <defs>
    <linearGradient id="bg-gradient" x1="0%" y1="0%" x2="100%" y2="100%">
      <stop offset="0%" style="stop-color:#1A1A2E;stop-opacity:1" />
      <stop offset="50%" style="stop-color:#2E3D65;stop-opacity:1" />
      <stop offset="100%" style="stop-color:#1A1A2E;stop-opacity:1" />
    </linearGradient>
  </defs>
  <!-- 背景 -->
  <rect fill="url(#bg-gradient)" width="192" height="192"/>
  
  <!-- セーフエリア対応: 中央80%にコンテンツを配置 -->
  <!-- マスカブルアイコン用に縮小 (0.6倍) -->
  <g transform="translate(96, 96) scale(0.6)">
    <!-- ブラシ本体 -->
    <path d="M-25,-50 L-20,-30 L-15,-25 L15,25 L15,38 L8,45 L-8,45 L-15,38 L-15,25 L-25,-15 Z" 
          fill="#F7D308" stroke="#1A1A2E" stroke-width="3"/>
    
    <!-- ブラシの金属部分 -->
    <rect x="-15" y="25" width="30" height="10" fill="#C0C0C0" stroke="#1A1A2E" stroke-width="2"/>
    
    <!-- ブラシの毛先 -->
    <path d="M-15,35 L-12,50 L-6,53 L0,54 L6,53 L12,50 L15,35 Z" 
          fill="#FFFFFF" stroke="#1A1A2E" stroke-width="2"/>
    
    <!-- インクの飛び散り -->
    <circle cx="-45" cy="-20" r="6" fill="#00D9FF" opacity="0.9"/>
    <circle cx="40" cy="-25" r="7" fill="#FF4AAD" opacity="0.9"/>
    <circle cx="-35" cy="20" r="5" fill="#19D719" opacity="0.9"/>
    <circle cx="45" cy="15" r="6" fill="#DB00DB" opacity="0.9"/>
    
    <!-- 小さな飛び散り -->
    <circle cx="-50" cy="0" r="3" fill="#F7D308" opacity="0.7"/>
    <circle cx="50" cy="-5" r="3" fill="#FF8C00" opacity="0.7"/>
  </g>
</svg>

